<svg width="800" height="600" xmlns="http://www.w3.org/2000/svg">
 <!-- Created with Method Draw - http://github.com/duopixel/Method-Draw/ -->

 <g>
  <title>background</title>
  <rect fill="#fff" id="canvas_background" height="602" width="802" y="-1" x="-1"/>
  <g display="none" overflow="visible" y="0" x="0" height="100%" width="100%" id="canvasGrid">
   <rect fill="url(#gridpattern)" stroke-width="0" y="0" x="0" height="100%" width="100%"/>
  </g>
 </g>
 <g>
  <title>Layer 1</title>
  <path stroke="#000000" id="svg_60" d="m605.00928,442.0696c-3.53228,-1.32728 -6.0641,-5.5447 -5.48872,-9.14292c0.36282,-2.26895 8.01736,-16.04306 8.68584,-15.62992c0.21818,0.13484 2.15975,3.34617 4.31459,7.13628c3.45183,6.07135 3.91789,7.20347 3.91789,9.51702c0,4.68947 -3.75306,8.53068 -8.25939,8.45338c-1.31501,-0.02256 -2.74161,-0.17279 -3.17022,-0.33384l0,0zm3.53894,-2.35863c0.11692,-0.60712 -0.1562,-0.90321 -0.83315,-0.90321c-1.54283,0 -3.68299,-1.95404 -4.16114,-3.79926c-0.51005,-1.96835 -1.86242,-2.20244 -2.06217,-0.35696c-0.38485,3.55559 6.4081,8.42608 7.05646,5.05943l0,0z" fill-opacity="null" stroke-opacity="null" stroke-width="1.5" fill="#191919"/>
  <path stroke="#000000" id="svg_64" d="m172.08998,149.81279c-2.51501,0 -3.80772,-2.52674 -3.80772,-5.55676c0,-2.52616 0.64626,-4.97877 2.51501,-4.97877c1.29271,0 3.23872,2.45261 3.88498,4.97877c1.29271,3.67804 0,5.55676 -2.59227,5.55676zm429.91411,144.17284c5.75393,0 7.04644,0.64802 3.80772,4.97818c-1.86875,3.03002 -5.75373,5.55618 -7.62248,5.55618c-1.94582,0 -3.88498,-2.52616 -3.88498,-5.55618c0,-3.10435 2.59246,-4.97818 7.69974,-4.97818zm-401.71446,-176.35586c-5.75373,-1.22601 -6.40018,-7.43431 0,-9.30874c3.23853,-0.57721 5.10747,1.22582 5.10747,4.97877c0,3.10396 -1.86895,4.90777 -5.10747,4.32997zm-71.72153,196.12521c7.69974,-1.80401 7.69974,-3.10063 5.10747,-7.36018c-1.93917,-3.10063 -2.58542,-6.85319 -1.29271,-8.0794c0.64626,-1.87775 3.88498,0 5.75373,3.67843c2.59227,4.97877 4.53124,5.6307 9.63871,2.52616c3.1685,-1.87423 5.75373,-3.10356 5.75373,-1.22582c0,1.22582 1.94601,0 4.46102,-2.52616c3.88518,-3.67843 4.53143,-11.76115 0.64645,-16.09151c-3.16146,-3.67843 -19.2072,-2.45222 -23.66822,1.87423c-2.58542,3.10454 -4.53143,2.45613 -7.04644,-3.10004c-3.88498,-9.23852 -3.88498,-10.53553 5.10728,-11.11274c7.69974,0 7.69974,0 1.29271,-3.75256c-3.23168,-1.80401 -6.39999,-5.55618 -6.39999,-8.00879c0,-6.20791 8.92204,-9.88634 12.80702,-5.55598c1.29271,1.80362 3.80791,3.67843 6.40018,3.67843c5.10747,0 29.49217,-20.99634 29.49217,-25.3267c0,-1.87755 2.52205,-3.10337 5.10747,-1.87755c3.16831,0.65173 8.92223,-1.22582 14.75322,-4.33036c8.26874,-4.97838 8.26874,-5.55618 3.80772,-13.63557c-3.16146,-5.55618 -7.04644,-7.43431 -16.03889,-7.43431c-10.21475,0 -12.80702,1.2264 -15.96848,8.66072c-1.29975,4.97818 -5.18454,8.65681 -7.69974,8.65681c-4.46102,0 -5.75373,-5.55285 -1.29271,-8.65681c1.93897,-1.2264 3.23168,-5.55618 3.23168,-9.88653c0,-6.78277 -1.29271,-8.00879 -9.63871,-6.20458c-8.346,1.22582 -8.346,0.64802 -6.40018,-8.66111c1.29271,-5.55598 3.16146,-10.53436 4.46121,-11.11216c1.29271,-0.64802 2.58523,-6.20458 2.58523,-11.76076c0,-11.11333 3.81476,-12.98756 10.86824,-4.97877c3.23149,4.33016 5.17769,4.97877 6.39999,1.22582c1.29271,-2.45222 5.82395,-3.03002 12.87743,-1.8042c9.56849,2.45261 10.21475,1.8042 8.92204,-5.55618c-0.64626,-4.32977 -1.29956,-9.30854 -1.94582,-10.53436c0,-1.87481 -3.16146,-4.33036 -6.97622,-6.20517c-7.69974,-3.10337 -9.63871,-10.53436 -2.59227,-10.53436c1.94601,0 3.81457,-1.2264 3.81457,-3.68234c0,-1.87481 3.88518,-3.10063 8.99245,-2.52655c7.05348,0.65173 10.8612,-1.80322 20.49991,-14.79019c7.05348,-9.30913 12.16076,-14.2875 12.80721,-11.76135c0.64626,3.10063 3.88498,4.90425 7.05329,4.90425c5.10747,0 5.75393,-1.80362 3.88518,-9.88301c-0.6533,-5.55657 -3.88518,-12.33856 -5.83099,-15.4431c-5.75393,-6.85593 -5.75393,-14.86472 0,-12.41308c4.53124,2.45613 18.63097,-4.32645 18.63097,-8.65661c0,-1.87775 1.87579,-3.10396 4.46102,-3.10396c2.59246,0 3.81476,3.75236 3.81476,8.66052c0,6.20458 1.29271,8.6572 4.53143,6.85299c2.51501,-1.29682 4.46121,-4.97877 4.46121,-7.43079c0,-7.4347 20.49972,-20.42187 25.60699,-16.74012c1.94621,1.22679 3.88498,0 4.53867,-4.32977c1.86855,-8.66052 13.44623,-15.4431 18.55351,-11.11274c2.59246,1.80362 5.10767,1.2264 5.76097,-0.64802c1.29252,-2.45594 6.39999,-4.33036 12.15372,-4.90855c5.75373,-0.64802 13.45347,-3.10396 16.69219,-5.63011c12.15372,-8.00879 24.31467,-7.43099 29.42195,1.23012c3.23872,6.20419 4.53124,6.20419 4.53124,1.87384c0,-5.55657 2.52224,-6.20458 17.91469,-4.32977c24.38489,2.45594 28.19965,2.45594 37.19211,-0.64861c5.75373,-1.80401 7.69955,-1.22621 7.69955,3.75197c0,3.10454 1.86895,5.55676 4.46121,5.55676c1.93897,0 3.80772,-1.8042 3.80772,-3.68195c0,-4.97818 10.29221,-7.43079 19.28446,-4.97818c6.97622,2.45594 7.62248,3.10337 5.75373,19.77268c-0.64626,9.95715 0,16.73972 1.22249,16.73972c1.29252,0 2.59227,-4.33036 2.59227,-10.53494c0,-10.46433 7.04644,-14.79117 9.63871,-6.20478c0.64645,3.10083 2.51501,1.87442 3.80772,-3.02982c3.23892,-12.99088 10.29221,-6.2085 8.346,8.00879c-1.93877,11.76076 -1.93877,11.76076 3.81496,7.4304c3.23853,-1.87442 5.75353,-6.78199 5.75353,-9.88301c0,-3.10415 1.94621,-6.7859 4.53163,-8.08292c5.10708,-2.45163 10.86805,6.85358 8.99226,13.6389c-0.64626,3.10122 -0.64626,5.55657 1.2223,5.55657c1.29975,0 2.59246,-1.80362 2.59246,-3.10396c0,-1.80401 3.16831,-2.45261 7.05329,-1.22582c8.33915,1.87442 9.56145,6.8526 2.5152,9.88262c-1.86875,1.30034 -3.81476,4.33036 -3.81476,6.85691c0,4.33036 1.29956,4.33036 8.346,0c11.50746,-7.43079 16.61474,-6.85691 18.56094,1.22582c1.29252,4.33036 3.81457,6.20811 6.39999,4.33036c2.59227,-0.64841 8.346,1.87775 12.80721,6.20458c3.88498,3.68175 9.63871,6.78258 12.23098,6.78258c3.81476,0 3.81476,3.10435 2.51501,11.76448c-1.29252,9.30913 -1.29252,10.53494 2.59246,6.78297c5.10728,-6.13456 7.04644,-5.55715 8.92223,3.10004c0.64626,4.33036 5.1775,7.43431 10.28497,9.30874c5.75373,1.23012 8.92223,4.33016 8.92223,8.01211c0,3.75236 1.93877,8.0794 3.88498,10.53533c5.10747,4.32977 3.80772,17.31694 -1.94621,21.6471c-1.93877,1.29701 -4.46082,0.64861 -5.10728,-1.22582c-1.29252,-1.87814 -5.75373,-1.87814 -14.09992,0c-13.45347,4.32645 -15.96848,5.55618 -12.80702,11.18296c1.94601,3.67843 24.32152,2.45261 36.54565,-1.87775c3.81476,-1.87462 5.10747,0 5.10747,8.66072c0,6.20419 -1.29271,11.11274 -3.23168,11.11274c-1.29975,0 -2.52205,1.87423 -2.52205,4.97818c0,7.43392 3.1685,6.78199 11.5145,-1.87481c4.45398,-4.97818 7.04625,-6.20791 10.21475,-3.10337c3.23168,3.10337 3.88498,3.10337 3.88498,-1.87481c0,-3.03374 -1.29975,-5.55618 -3.23853,-5.55618c-1.22249,0 -2.52224,-2.45594 -2.52224,-4.90855c0,-3.10356 1.87579,-5.55618 4.46102,-5.55618c1.94601,0 4.53143,1.22582 4.53143,3.03002c0,1.87853 2.52205,4.33016 5.76077,4.97877c4.45417,1.87814 5.75373,4.33036 5.10728,11.76115c-1.29956,14.21631 1.29291,18.54706 10.8612,16.09484c4.53143,-1.23012 7.04625,0 5.10747,2.45222c-0.57604,1.22582 0,4.33036 1.29271,5.6264c5.18454,3.68214 3.23853,12.33954 -2.5152,12.33954c-7.05329,0 -8.99245,3.10337 -5.1775,8.66013c2.58523,3.10396 4.53124,3.67843 7.04625,1.22621c5.83099,-6.20458 7.05348,-1.22621 7.69974,23.52582c0,12.40878 1.29271,22.2957 2.58542,22.2957c3.16831,0 1.94601,13.6389 -2.58542,19.19507c-2.52205,3.10063 -2.52205,6.13045 -0.64626,8.65661c4.53124,5.55676 0,21.64827 -5.76097,21.64827c-5.10708,0 -14.74599,11.76076 -14.74599,17.31733c0,6.7863 -8.26874,0 -10.21475,-7.43099c-1.93897,-6.78238 -1.93897,-6.78238 -3.23872,-1.87775c-1.2223,5.63031 5.76077,22.94763 11.58492,27.8552c3.81457,3.75295 -3.23872,9.95715 -8.34619,7.43099c-2.59246,-1.22582 -3.81476,-4.90425 -3.81476,-8.65681c0,-10.53436 -16.03889,-37.09059 -28.19965,-47.04734c-6.47021,-4.90855 -12.22413,-10.46472 -12.22413,-12.33895c0,-3.75256 -20.50676,-15.4431 -32.01422,-19.19547c-6.40723,-1.87775 -8.34619,-1.22601 -8.34619,3.75236c0,3.67843 -1.2223,4.90425 -3.81476,3.67843c-5.75373,-2.45261 -8.346,3.10454 -3.23853,8.66072c7.05329,6.78238 5.83099,14.86472 -1.86875,11.76076c-5.17769,-1.87442 -5.82415,-1.2264 -3.88498,9.30893c0.64626,6.13397 1.94601,14.21631 1.94601,17.89473c0,3.75256 1.29252,6.20517 2.58523,6.20517c1.87599,0 2.52205,-1.2264 1.22249,-3.10063c-0.64626,-1.87814 0.6535,-3.68195 3.23853,-3.68195c1.94621,0 3.81476,2.45555 3.81476,4.90777c0,2.52655 -2.52185,4.97818 -7.05329,4.33075c-3.80772,0 -7.04644,-1.8042 -7.04644,-3.03041c0,-5.6307 -17.26823,-43.94711 -22.37551,-49.57389c-5.75393,-6.13456 -1.93917,-8.00879 -47.40705,21.06969c-7.04625,4.33036 -14.74599,13.6389 -18.63097,20.42187c-3.1685,6.78199 -8.27578,13.6389 -10.8612,14.86472c-2.59227,1.2264 -12.16076,11.11274 -20.50695,21.64769c-35.8994,46.39541 -30.0684,51.95198 -27.5532,146.69938c10.86805,71.79566 10.86805,71.79566 10.86805,71.79566c-25.61423,0 -25.61423,0 -25.61423,0c-21.14617,0 -21.14617,0 -21.14617,0c1.93897,-66.2432 1.93897,-66.2432 1.93897,-66.2432c1.29252,-5.55246 1.94601,-16.73914 2.59246,-22.94431c0.64626,-3.68175 -17.98491,-19.77326 -17.33845,-23.4513c0,-3.10396 19.27742,5.55676 19.27742,2.45222c3.16831,-45.1696 0,-81.10479 -8.34619,-100.22945c-1.93897,-11.76135 -17.98471,-49.57018 -20.49972,-49.57018c-0.64645,0 -5.17769,-3.68175 -9.63871,-8.01211c-7.69994,-8.07901 -10.8612,-8.6572 -53.81408,-11.11274c-46.11414,-2.52283 -46.11414,-2.52283 -46.11414,-2.52283c-10.93142,8.6572 -10.93142,8.6572 -10.93142,8.6572c-6.39999,5.63011 -12.80702,9.30874 -14.67596,9.30874c-3.88498,0 -19.93072,12.99029 -26.90694,20.4207c-0.64626,0 -1.29252,-0.64743 -1.29252,-1.22582c-0.64645,0 -0.64645,0 -0.64645,-0.64841c-0.64626,-1.80362 -1.29956,-3.68175 -2.59227,-5.55618c3.88498,-3.10396 7.05329,-4.9817 8.346,-4.32977c1.93897,1.22582 3.81476,0 3.81476,-3.10454c0,-3.10063 -3.81476,-4.33016 -14.02951,-3.10063c-12.23118,1.87481 -15.39948,2.52283 -17.33845,9.88321c-3.1685,3.75236 -3.81476,9.30893 -1.93897,13.63929c-0.6535,5.55618 -0.6535,9.30854 0,9.30854c0.64626,0 1.29252,-1.22582 3.23168,-2.52616c0,0.64861 0.64626,1.30034 1.29956,1.87775c-6.40703,1.87442 -9.64575,7.43099 -8.99245,12.98716c-3.23853,2.52616 -6.40703,3.75236 -10.29181,5.62679c0,0 0,-0.64802 -0.57623,-0.64802c2.52205,-5.55618 3.81476,-11.76135 4.46102,-21.06989c1.29975,-10.46472 0.64626,-17.31733 -1.29252,-17.31733c-1.29271,0 -2.59227,2.52616 -2.59227,6.204c0.64606,3.10454 -0.57623,6.20517 -3.16166,6.78297c-1.94601,0.64802 -3.23853,-0.5778 -3.23853,-3.67843c0,-7.43431 -2.5152,-7.43431 -8.27597,-0.65173c-2.58523,2.52616 -7.6927,5.55657 -12.15372,6.85691c-5.83099,1.80362 -7.69974,0.57721 -10.29201,-6.20517c-1.93897,-5.55618 -3.23168,-11.76448 -1.93897,-14.2167c0.64626,-3.10396 0.64626,-5.62679 -1.86875,-5.62679c-7.05348,0 -1.94601,-9.88693 6.39999,-11.76467zm55.1066,-142.29509c-3.88498,-0.64802 -7.05348,-2.45222 -8.346,-4.97838c-0.64645,-3.68175 -1.29271,-3.68175 -1.29271,0c0,2.52616 -2.59227,4.33036 -5.10747,4.97838c-4.53124,0 -4.53124,0.64841 0.64645,3.10454c3.16127,1.22582 6.39999,3.10004 7.04625,3.10004c0.57604,0 3.81476,-1.87423 7.05348,-3.10004c5.75373,-3.10454 5.75373,-3.10454 0,-3.10454zm508.03563,99.65165c1.22249,1.2264 2.5152,-0.65173 2.5152,-3.75236c0,-2.45555 -1.29271,-4.90816 -2.5152,-4.90816c-1.94582,0 -3.23853,1.22621 -3.23853,3.03002c0,1.87814 1.29271,4.40429 3.23853,5.6305zm-4.53124,5.55657c-0.64626,-1.87814 -3.81476,-4.33016 -6.40703,-4.33016c-1.86875,0 -3.16146,2.45202 -1.86875,4.33016c0.57604,1.87442 3.16831,3.10083 5.75373,3.10083c2.52205,0 3.16831,-1.2264 2.52205,-3.10083zm-5.75373,27.85188c1.93897,0 4.53124,-0.64802 4.53124,-1.22582c0,-1.30034 -2.59227,-2.52616 -4.53124,-3.75256c-2.52205,-1.22621 -4.46121,-0.5778 -4.46121,1.2264c0,1.87775 1.93917,3.75197 4.46121,3.75197zm5.10747,-58.80811c2.58523,-1.22679 3.88478,-3.10435 3.23168,-4.90855c-1.93917,-4.40038 -12.80037,-4.40038 -12.80037,0c0,4.90855 3.80791,6.78297 9.56869,4.90855zm-35.18272,-46.39972c-3.23872,1.87814 -5.17769,5.55657 -4.53163,7.43431c3.23872,4.90483 7.05368,3.67843 10.28516,-4.33036c3.1685,-7.43431 1.87579,-8.66013 -5.75353,-3.10396zm-12.23118,95.32148c16.692,16.66872 17.33845,17.31733 17.33845,11.76115c0,-3.10063 -1.29271,-5.62679 -3.23872,-5.62679c-1.86855,0 -5.10728,-3.10454 -7.04625,-6.78238c-1.86895,-3.68234 -5.75373,-7.4349 -8.92223,-7.4349c-5.82395,0 -5.82395,0.65193 1.86875,8.08292zm-13.44663,-29.15261c3.87813,0 5.75393,-1.22582 3.23188,-1.80381c-1.93897,-1.22621 -5.10747,-1.22621 -7.04644,0c-1.94621,0.57799 0,1.80381 3.81457,1.80381zm-18.56075,-84.13481c1.93897,1.87481 7.6927,4.32703 12.79998,5.55676c8.99265,1.87423 9.63891,1.87423 4.53143,-3.10396c-5.82395,-6.13456 -21.79243,-8.00879 -17.33141,-2.45281zm-39.0679,-102.68108c-1.93897,1.80362 -2.58523,5.55618 -1.93897,8.0082c1.29271,4.97877 5.10747,0.64861 5.10747,-6.78238c0,-3.75256 -0.64645,-4.33036 -3.1685,-1.22582zm19.2072,133.63789c5.10747,3.10024 7.05348,3.10024 9.64595,-1.22973c5.10728,-6.78277 1.86855,-9.88301 -7.69994,-5.55598c-7.69974,3.03334 -7.69974,3.03334 -1.94601,6.78571zm-12.79998,-30.95681c9.63871,-6.7818 9.63871,-6.7818 1.93897,-6.7818c-5.17769,0 -8.99245,2.45163 -10.93142,6.7818c-1.22249,4.32703 -2.52205,6.78297 -1.87579,6.78297c0,0 5.10747,-3.68214 10.86824,-6.78297zm-14.09992,100.30025c4.45398,6.78297 12.15391,6.78297 9.63871,-0.64841c-0.64626,-2.45555 -1.29956,-5.55618 -1.29956,-6.20811c0,-0.5778 -2.58542,-0.5778 -5.75373,0.65193c-5.17769,1.22621 -5.17769,3.10063 -2.58542,6.20458zm-19.8605,-25.40005c5.10728,6.78277 7.69974,7.43079 13.45347,2.45261c3.81476,-3.10063 3.81476,-3.10063 0,-3.67843c-1.93897,0 -7.04644,-0.65193 -11.50746,-1.87814c-6.40703,-2.45222 -6.40703,-2.45222 -1.94601,3.10396zm-0.64626,-67.46921c3.23853,0 7.05329,-9.88634 5.10747,-12.98697c-2.5152,-3.10396 -7.6929,1.87423 -7.6929,7.43079c0,3.10415 1.29271,5.55618 2.58542,5.55618zm-31.36112,42.06897c-3.88498,2.52616 -3.23853,3.10454 1.86895,3.10454c3.23853,0 7.04625,-1.23012 8.346,-3.10454c1.93877,-4.90757 -4.46121,-4.90757 -10.21494,0zm0.64645,54.47872c0.57604,0.65193 2.51501,-0.64841 4.46102,-3.67843c1.93877,-2.52616 7.6929,-5.63011 12.15372,-6.85652c5.75373,-1.87481 8.34619,-4.90464 8.34619,-9.30893c0,-10.46042 -8.99245,-7.36038 -18.56114,6.2083c-3.88478,6.85319 -7.04625,12.40976 -6.39979,13.63557zm-7.05329,-28.50068c5.75353,-6.78199 5.75353,-8.01211 1.2221,-9.88653c-5.10728,-2.45261 -8.915,3.10454 -8.915,12.98716c-0.6533,7.43431 -0.6533,7.43431 7.6929,-3.10063zm-10.28516,-73.02519c0.64626,4.97818 1.93897,4.33016 5.75353,-4.90816c4.53163,-9.88321 4.53163,-11.18355 0.64645,-11.18355c-2.51501,0 -5.10747,1.87481 -5.75373,4.97896c-1.29271,2.45202 -1.29271,8.08272 -0.64626,11.11274zm-3.1685,-50.72636c0,2.52283 1.2223,8.6572 2.52205,12.98716c1.93897,8.66052 1.93897,8.66052 3.88498,1.22621c2.51501,-7.4304 0,-18.54314 -3.88498,-18.54314c-1.87579,0 -2.52205,1.87384 -2.52205,4.32977zm-44.88481,20.41796c-3.16831,4.33036 -3.16831,8.66072 -0.6533,21.64769c1.29975,9.30874 4.53848,18.61767 6.40703,20.42187c3.23872,3.10396 3.88498,0 4.53124,-19.19214c0,-23.45189 -3.23853,-30.88561 -10.28497,-22.87741zm5.75373,65.59479c0.64645,1.2264 1.93897,-1.22621 1.29271,-4.90796c0,-3.75256 -0.64626,-4.33036 -1.93897,-1.87442c-0.57623,2.45222 -0.57623,5.55618 0.64626,6.78238zm23.09218,-58.16048c-0.64626,1.2264 -0.64626,9.88693 1.29271,19.19214c1.94601,16.09484 2.52205,16.74285 3.1685,4.9817c0.64626,-19.19547 -0.64645,-28.50401 -4.46121,-24.17384zm-21.79947,174.55185c3.88498,-7.43431 10.28516,-19.84407 14.74618,-27.2778c5.10728,-8.00937 8.346,-18.54373 9.63871,-29.07867c1.87579,-16.66931 1.87579,-16.66931 1.87579,-16.66931c-7.69974,9.23832 -7.69974,9.23832 -7.69974,9.23832c-3.81476,4.97877 -6.40018,10.53494 -6.40018,12.40976c0,4.90777 -12.16076,35.86399 -15.97552,41.42056c-1.93897,3.10004 -5.17769,9.95715 -5.75373,14.86472c-3.23872,14.21376 2.52205,11.76115 9.56849,-4.90757zm-45.46789,63.71665c1.94601,12.33856 1.94601,12.33856 8.34619,-14.21689c3.81476,-14.2877 9.56849,-37.16081 13.45347,-51.3779c5.10728,-17.96593 7.05329,-32.83065 7.05329,-53.82973c0,-27.27506 -0.6533,-27.85286 -5.76058,-24.74832c-11.57788,8.00859 -17.98491,30.3043 -20.57033,73.59908c-1.2223,22.30001 -2.52205,44.59571 -3.81457,49.50387c-0.64645,4.97838 0,14.28731 1.29252,21.06989zm1.29975,-158.39012c2.51501,6.13437 5.10747,11.11274 5.10747,11.11274c0.64626,0 3.80752,-3.75256 6.39999,-8.66013c3.23853,-4.32684 8.346,-9.30521 10.28516,-11.10942c7.62933,-5.63011 9.5683,-22.94744 3.16831,-34.70859c-5.10747,-10.53494 -19.2072,-22.29962 -21.79967,-18.54706c-1.29252,1.22621 -3.16127,12.99088 -4.46102,26.62645c-2.58523,20.42128 -2.58523,26.62919 1.29975,35.286zm-3.88498,-141.72022c1.29271,1.22973 2.58523,0.5778 2.58523,-1.29643c0,-2.45594 -1.29252,-4.90855 -2.58523,-6.13456c-1.94601,-1.30014 -3.1685,-0.64841 -3.1685,1.8042c0,1.87442 1.22249,4.33036 3.1685,5.62679zm-207.54895,166.39793c8.92204,0.65173 8.92204,0.65173 8.92204,0.65173c8.99245,0 17.98491,-8.01211 17.98491,-14.86472c0,-4.33036 -0.64626,-4.33036 -26.90694,14.21298zm3.81476,-17.31752c0,1.87873 1.29271,3.75256 3.23872,3.75256c3.16146,0 12.15372,-11.11274 10.21475,-12.98697c-1.94601,-2.52616 -13.45347,5.55598 -13.45347,9.23441zm7.05329,-42.64618c9.63891,12.34188 14.09992,13.56809 19.2072,5.55598c5.17769,-7.4304 0.64645,-12.40917 -14.75303,-14.21337c-12.80017,-1.87814 -12.80017,-1.87814 -4.45417,8.65739zm-7.05329,-34.70546c0,1.29643 4.53124,4.32645 9.63871,6.8526c23.66842,11.76135 28.19965,11.76135 27.5532,0.57839c0,-6.78297 -9.63871,-21.64808 -13.45347,-21.64808c-4.53124,0 -23.73844,11.76115 -23.73844,14.21709zm34.60668,87.88717c7.04644,0 7.6927,-1.87481 1.93897,-4.90483c-2.59227,-0.65173 -5.10747,0 -5.75373,1.8042c-1.29975,1.87384 0.64626,3.10063 3.81476,3.10063zm5.10747,-145.39924c-4.46121,-3.10435 -10.22199,-4.33016 -12.80721,-3.10435c-4.46102,2.45594 -3.81476,3.10435 2.58523,4.97818c3.1685,1.23012 9.64595,2.45613 12.80721,3.03393c3.81476,0 3.81476,-1.22973 -2.58523,-4.90777zm-0.57604,22.2957c3.80752,0 4.46102,-0.64841 1.86875,-2.52283c-1.86875,-0.57741 -4.46121,-0.57741 -5.75393,0.64861c-0.64626,1.22582 1.29271,2.45261 3.88518,1.87423zm3.80752,14.21728c-8.99226,0 -8.99226,0.57721 -3.80752,5.55598c6.39999,5.55618 8.26874,6.20419 10.8612,2.45222c4.46082,-4.90483 1.29252,-8.0082 -7.05368,-8.0082zm12.80741,-69.92183c-2.59246,-3.10396 -3.23872,2.45261 -1.93917,9.23499c0.64626,4.33036 3.23168,8.08233 4.53143,8.08233c2.51501,0 0.64626,-13.6389 -2.59227,-17.31733zm20.49972,81.682c-1.29252,0.57839 1.94601,4.33036 5.76077,7.4347c3.88498,3.10063 7.04625,4.32664 7.04625,2.45222c0,-4.32977 -10.86101,-12.4125 -12.80702,-9.88693zm-16.03889,4.33036c-5.75373,4.33075 -2.51501,15.44291 5.82415,17.31772c4.46102,1.22601 11.5145,6.20478 15.97552,11.11235c3.88498,4.97877 7.04625,6.85691 7.04625,4.97877c0,-6.20458 -25.60719,-35.93499 -28.84591,-33.40884zm26.26068,51.37849c-3.81457,-9.96086 -8.27578,-14.86569 -16.62197,-17.96965c-6.39999,-2.45222 -12.80702,-3.75197 -14.74599,-3.10024c-1.94601,0.64802 5.75373,8.65681 16.69219,17.96554c20.49972,16.09151 20.49972,16.09151 14.67577,3.10435zm34.0236,-95.32188c-1.29271,0 -2.59246,2.45261 -2.59246,4.90483c0,3.10396 1.29975,4.97877 2.59246,4.97877c1.86875,0 3.1685,-1.87481 3.1685,-4.97877c0,-2.45222 -1.29975,-4.90483 -3.1685,-4.90483zm-5.82395,50.72636c0,4.32977 10.93142,1.22621 15.39244,-4.33036c6.40018,-9.30854 5.75373,-11.76115 -2.59227,-11.76115c-5.75373,0 -12.80017,8.66091 -12.80017,16.09151zm18.63116,-133.63848c-1.94601,8.00879 -3.23872,14.79117 -2.59227,15.4431c1.94582,2.45261 7.05348,-16.09112 7.05348,-23.52543c0,-3.10063 -1.94621,0.65193 -4.46121,8.08233zm33.30713,124.97776c-3.23872,0 -5.75393,1.23012 -5.75393,3.68175c0,1.87481 1.86875,3.10454 3.80772,3.10454c2.59227,0 5.10747,-1.22973 5.76077,-3.10454c1.29271,-2.45163 -0.6533,-3.68175 -3.81457,-3.68175zm-7.69994,116.32057c3.81476,11.18687 9.56849,21.64769 12.80721,24.17384c3.23872,1.87481 9.63871,10.53533 13.45347,19.19547c3.81476,8.6572 7.69974,15.43978 8.34619,15.43978c3.16127,0 -3.23872,-56.93095 -7.69974,-74.2516c-3.88518,-14.86139 -5.10767,-28.50068 -4.46121,-50.14837c0.57604,-16.09112 0,-30.30821 -1.29252,-31.53422c-0.64645,-1.22621 -5.10747,-1.22621 -8.99245,0c-7.05348,2.45222 -7.69974,4.33036 -7.69974,17.96926c0,10.46101 -1.29291,16.09151 -4.46121,18.54314c-8.99226,5.55676 -8.346,37.09079 0,60.6127zm-18.56075,-82.90821c-1.29271,-9.30874 -2.58523,-10.53494 -9.63871,-10.53494c-8.34619,0 -8.34619,0.64841 -7.69974,13.63557c0,8.01211 1.29956,17.32065 1.94582,21.64749c0.64645,4.33036 3.1685,8.66013 5.75393,9.30874c5.10728,3.10435 10.86101,-18.54314 9.63871,-34.05686zm-9.63871,62.48692c-5.75393,-7.43099 -9.63871,-15.43978 -10.21494,-17.31733c0,-2.45222 -3.23853,-8.65681 -7.04644,-14.21337c-3.88498,-5.55618 -8.346,-12.41269 -10.29201,-14.8653c-6.39999,-8.66013 -5.10747,-1.22582 1.94601,17.96593c4.46102,12.99029 12.15391,24.75164 21.14617,34.63798c16.62178,16.73953 18.56094,13.63616 4.46121,-6.20791zm-10.21494,30.37843c6.97622,0 6.40018,-0.64802 -3.23853,-10.53436c-6.40018,-6.20517 -10.8612,-12.98756 -10.8612,-16.09171c0,-2.45202 -8.34619,-11.18335 -17.98471,-19.19214c-9.56869,-8.08214 -18.56114,-16.09092 -19.85365,-18.54647c-1.29975,-3.10063 -1.94601,-3.10063 -1.94601,0.5778c0,3.75256 -3.16146,4.32977 -13.45347,2.45222c-7.04644,-1.2264 -12.80017,-1.2264 -12.80017,-0.57447c0,1.22621 2.58523,8.6572 5.17769,16.09092c4.46121,12.33915 6.39999,14.86569 20.49991,19.77013c8.92223,3.10396 23.02177,10.53475 32.01422,16.09092c8.34619,5.6307 18.56094,9.95715 22.44592,9.95715zm-99.99825,20.99908c2.59227,0 6.40703,-1.22582 8.99226,-3.10337c4.46121,-4.32703 0.6535,-4.32703 -7.6927,0c-3.81476,1.87755 -4.46102,2.45535 -1.29956,3.10337zm-7.04644,-15.44291c6.40018,-2.52244 26.90694,-4.97838 45.53811,-4.97838c35.17588,-0.5778 42.22916,-2.45163 28.12924,-6.20458c-4.46082,-1.22582 -14.67577,-4.33036 -23.02177,-7.43099c-14.74618,-5.55618 -44.89185,-3.68175 -48.05331,2.52342c-0.6533,1.22914 -3.88498,1.87755 -7.05329,1.22914c-6.40018,-1.87775 -12.80721,3.10102 -14.74618,12.98756c-2.59227,8.0082 1.93897,8.66013 19.2072,1.87384zm-51.22162,14.21709c1.29271,4.97877 7.69974,5.55618 12.80721,1.22582c3.16127,-2.45202 3.16127,-3.67784 0,-7.4304c-2.59227,-3.68234 -4.46102,-3.68234 -8.346,-0.5778c-2.59227,1.8042 -4.46121,4.90483 -4.46121,6.78238zm-20.49991,43.29537c2.5152,0 3.80791,1.87481 2.5152,5.55657c-0.57623,2.52616 -2.5152,4.97838 -3.81476,4.97838c-1.93897,0 -3.16146,-2.45222 -3.16146,-4.97838c0,-3.03002 1.86875,-5.55657 4.46102,-5.55657z" stroke-opacity="null" stroke-width="1.5" fill="#191919"/>
 </g>
</svg>